<svg xmlns="http://www.w3.org/2000/svg" viewBox="0 0 200 200" width="256" height="256">
  <defs>
    <linearGradient id="homeBg" x1="0%" y1="0%" x2="100%" y2="100%">
      <stop offset="0%" style="stop-color:#1a472a;stop-opacity:1" />
      <stop offset="100%" style="stop-color:#0d2818;stop-opacity:1" />
    </linearGradient>
    <filter id="shadow" x="-20%" y="-20%" width="140%" height="140%">
      <feDropShadow dx="4" dy="6" stdDeviation="6" flood-color="#000" flood-opacity="0.5"/>
    </filter>
  </defs>
  
  <circle cx="100" cy="100" r="95" fill="url(#homeBg)"/>
  
  <!-- منزل -->
  <polygon points="100,35 40,85 160,85" fill="#ffc107" stroke="#030712" stroke-width="3" filter="url(#shadow)"/>
  <rect x="70" y="85" width="60" height="55" fill="#f8f9fa" stroke="#030712" stroke-width="2.5"/>
  <rect x="85" y="110" width="30" height="30" fill="#1a472a" stroke="#030712" stroke-width="2"/>
  <rect x="62" y="88" width="20" height="18" rx="3" fill="#ffc107" stroke="#030712" stroke-width="1.5"/>
  <rect x="118" y="88" width="20" height="18" rx="3" fill="#ffc107" stroke="#030712" stroke-width="1.5"/>
  
  <!-- سيارة -->
  <path d="M45,155 L55,125 L145,125 L155,155 Z" fill="#dc2626" stroke="#030712" stroke-width="2.5"/>
  <rect x="60" y="130" width="80" height="15" rx="3" fill="#f8f9fa" stroke="#030712" stroke-width="2"/>
  <circle cx="70" cy="158" r="10" fill="#1f2937" stroke="#030712" stroke-width="2"/>
  <circle cx="130" cy="158" r="10" fill="#1f2937" stroke="#030712" stroke-width="2"/>
  <circle cx="70" cy="158" r="4" fill="#9ca3af"/>
  <circle cx="130" cy="158" r="4" fill="#9ca3af"/>
</svg>